<mxfile host="app.diagrams.net" agent="Mozilla/5.0 (Windows NT 10.0; Win64; x64) AppleWebKit/537.36 (KHTML, like Gecko) Chrome/139.0.0.0 Safari/537.36 Edg/139.0.0.0" version="28.1.0">
  <diagram name="Page-1" id="Fa21BUD3seUADXjdBtQ_">
    <mxGraphModel dx="2246" dy="790" grid="1" gridSize="10" guides="1" tooltips="1" connect="1" arrows="1" fold="1" page="1" pageScale="1" pageWidth="827" pageHeight="1169" math="0" shadow="0">
      <root>
        <mxCell id="0" />
        <mxCell id="1" parent="0" />
        <mxCell id="gC5J0rxkOb4by4MaHKmH-12" value="" style="rounded=0;whiteSpace=wrap;html=1;" vertex="1" parent="1">
          <mxGeometry x="25" y="10" width="710" height="860" as="geometry" />
        </mxCell>
        <mxCell id="PlmtxpbaNAkLSSeMWVFK-1" value="Basic User" style="shape=umlActor;verticalLabelPosition=bottom;verticalAlign=top;html=1;outlineConnect=0;" parent="1" vertex="1">
          <mxGeometry x="-40" y="200" width="30" height="60" as="geometry" />
        </mxCell>
        <mxCell id="PlmtxpbaNAkLSSeMWVFK-2" value="Créer un compte" style="ellipse;whiteSpace=wrap;html=1;" parent="1" vertex="1">
          <mxGeometry x="380" y="280" width="120" height="80" as="geometry" />
        </mxCell>
        <mxCell id="PlmtxpbaNAkLSSeMWVFK-3" value="Se Connecter" style="ellipse;whiteSpace=wrap;html=1;" parent="1" vertex="1">
          <mxGeometry x="400" y="150" width="120" height="80" as="geometry" />
        </mxCell>
        <mxCell id="PlmtxpbaNAkLSSeMWVFK-4" value="Se déconnecter" style="ellipse;whiteSpace=wrap;html=1;" parent="1" vertex="1">
          <mxGeometry x="360" y="50" width="120" height="80" as="geometry" />
        </mxCell>
        <mxCell id="PlmtxpbaNAkLSSeMWVFK-5" value="Gérer son profil" style="ellipse;whiteSpace=wrap;html=1;" parent="1" vertex="1">
          <mxGeometry x="560" y="220" width="120" height="80" as="geometry" />
        </mxCell>
        <mxCell id="PlmtxpbaNAkLSSeMWVFK-13" value="Gérer les profils" style="ellipse;whiteSpace=wrap;html=1;" parent="1" vertex="1">
          <mxGeometry x="290" y="730" width="160" height="80" as="geometry" />
        </mxCell>
        <mxCell id="PlmtxpbaNAkLSSeMWVFK-14" value="Service Client" style="shape=umlActor;verticalLabelPosition=bottom;verticalAlign=top;html=1;outlineConnect=0;" parent="1" vertex="1">
          <mxGeometry x="-40" y="690" width="30" height="60" as="geometry" />
        </mxCell>
        <mxCell id="PlmtxpbaNAkLSSeMWVFK-23" value="" style="endArrow=none;html=1;rounded=0;" parent="1" source="PlmtxpbaNAkLSSeMWVFK-1" target="PlmtxpbaNAkLSSeMWVFK-3" edge="1">
          <mxGeometry width="50" height="50" relative="1" as="geometry">
            <mxPoint x="280" y="340" as="sourcePoint" />
            <mxPoint x="330" y="290" as="targetPoint" />
          </mxGeometry>
        </mxCell>
        <mxCell id="PlmtxpbaNAkLSSeMWVFK-24" value="" style="endArrow=none;html=1;rounded=0;" parent="1" source="PlmtxpbaNAkLSSeMWVFK-1" target="PlmtxpbaNAkLSSeMWVFK-5" edge="1">
          <mxGeometry width="50" height="50" relative="1" as="geometry">
            <mxPoint x="450" y="360" as="sourcePoint" />
            <mxPoint x="820" y="385" as="targetPoint" />
          </mxGeometry>
        </mxCell>
        <mxCell id="PlmtxpbaNAkLSSeMWVFK-25" value="" style="endArrow=none;html=1;rounded=0;" parent="1" source="PlmtxpbaNAkLSSeMWVFK-1" target="PlmtxpbaNAkLSSeMWVFK-2" edge="1">
          <mxGeometry width="50" height="50" relative="1" as="geometry">
            <mxPoint x="150" y="380" as="sourcePoint" />
            <mxPoint x="593" y="475" as="targetPoint" />
          </mxGeometry>
        </mxCell>
        <mxCell id="PlmtxpbaNAkLSSeMWVFK-26" value="" style="endArrow=none;html=1;rounded=0;" parent="1" source="PlmtxpbaNAkLSSeMWVFK-1" target="PlmtxpbaNAkLSSeMWVFK-4" edge="1">
          <mxGeometry width="50" height="50" relative="1" as="geometry">
            <mxPoint x="130" y="370" as="sourcePoint" />
            <mxPoint x="458" y="494" as="targetPoint" />
          </mxGeometry>
        </mxCell>
        <mxCell id="gC5J0rxkOb4by4MaHKmH-1" value="Débloquer un utilisateur" style="ellipse;whiteSpace=wrap;html=1;" vertex="1" parent="1">
          <mxGeometry x="470" y="650" width="160" height="80" as="geometry" />
        </mxCell>
        <mxCell id="gC5J0rxkOb4by4MaHKmH-2" value="Bloquer un utilisateur" style="ellipse;whiteSpace=wrap;html=1;" vertex="1" parent="1">
          <mxGeometry x="300" y="585" width="160" height="80" as="geometry" />
        </mxCell>
        <mxCell id="gC5J0rxkOb4by4MaHKmH-3" value="Ajouter ou supprimer ses informations de permis" style="ellipse;whiteSpace=wrap;html=1;" vertex="1" parent="1">
          <mxGeometry x="490" y="380" width="180" height="80" as="geometry" />
        </mxCell>
        <mxCell id="gC5J0rxkOb4by4MaHKmH-4" value="Supprimer son compte" style="ellipse;whiteSpace=wrap;html=1;" vertex="1" parent="1">
          <mxGeometry x="330" y="380" width="120" height="80" as="geometry" />
        </mxCell>
        <mxCell id="gC5J0rxkOb4by4MaHKmH-5" value="" style="endArrow=none;html=1;rounded=0;" edge="1" parent="1" source="PlmtxpbaNAkLSSeMWVFK-1" target="gC5J0rxkOb4by4MaHKmH-4">
          <mxGeometry width="50" height="50" relative="1" as="geometry">
            <mxPoint x="310" y="290" as="sourcePoint" />
            <mxPoint x="702" y="366" as="targetPoint" />
          </mxGeometry>
        </mxCell>
        <mxCell id="gC5J0rxkOb4by4MaHKmH-6" value="" style="endArrow=none;html=1;rounded=0;" edge="1" parent="1" source="PlmtxpbaNAkLSSeMWVFK-1" target="gC5J0rxkOb4by4MaHKmH-3">
          <mxGeometry width="50" height="50" relative="1" as="geometry">
            <mxPoint x="230" y="430" as="sourcePoint" />
            <mxPoint x="581" y="590" as="targetPoint" />
          </mxGeometry>
        </mxCell>
        <mxCell id="gC5J0rxkOb4by4MaHKmH-8" value="" style="endArrow=block;html=1;rounded=0;endFill=0;" edge="1" parent="1" source="PlmtxpbaNAkLSSeMWVFK-14" target="PlmtxpbaNAkLSSeMWVFK-1">
          <mxGeometry width="50" height="50" relative="1" as="geometry">
            <mxPoint x="240" y="420" as="sourcePoint" />
            <mxPoint x="591" y="580" as="targetPoint" />
          </mxGeometry>
        </mxCell>
        <mxCell id="gC5J0rxkOb4by4MaHKmH-9" value="" style="endArrow=none;html=1;rounded=0;" edge="1" parent="1" source="PlmtxpbaNAkLSSeMWVFK-14" target="gC5J0rxkOb4by4MaHKmH-2">
          <mxGeometry width="50" height="50" relative="1" as="geometry">
            <mxPoint x="280" y="370" as="sourcePoint" />
            <mxPoint x="631" y="530" as="targetPoint" />
          </mxGeometry>
        </mxCell>
        <mxCell id="gC5J0rxkOb4by4MaHKmH-10" value="" style="endArrow=none;html=1;rounded=0;" edge="1" parent="1" source="PlmtxpbaNAkLSSeMWVFK-14" target="gC5J0rxkOb4by4MaHKmH-1">
          <mxGeometry width="50" height="50" relative="1" as="geometry">
            <mxPoint x="390" y="754" as="sourcePoint" />
            <mxPoint x="708" y="680" as="targetPoint" />
          </mxGeometry>
        </mxCell>
        <mxCell id="gC5J0rxkOb4by4MaHKmH-11" value="" style="endArrow=none;html=1;rounded=0;" edge="1" parent="1" source="PlmtxpbaNAkLSSeMWVFK-14" target="PlmtxpbaNAkLSSeMWVFK-13">
          <mxGeometry width="50" height="50" relative="1" as="geometry">
            <mxPoint x="490" y="745" as="sourcePoint" />
            <mxPoint x="970" y="720" as="targetPoint" />
          </mxGeometry>
        </mxCell>
        <mxCell id="gC5J0rxkOb4by4MaHKmH-13" value="Gestion des comptes" style="text;html=1;align=center;verticalAlign=middle;whiteSpace=wrap;rounded=0;" vertex="1" parent="1">
          <mxGeometry x="40" y="20" width="130" height="30" as="geometry" />
        </mxCell>
      </root>
    </mxGraphModel>
  </diagram>
</mxfile>
